<svg width="241" height="82" viewBox="0 0 241 82" fill="none" xmlns="http://www.w3.org/2000/svg">
<path d="M118.322 27.4688V46.2143C118.322 48.5341 117.611 50.3675 116.19 51.7145C114.793 53.0614 112.947 53.7349 110.652 53.7349C108.357 53.7349 106.499 53.0614 105.077 51.7145C103.68 50.3675 102.982 48.5341 102.982 46.2143H107.285C107.31 47.3617 107.596 48.2722 108.145 48.9457C108.719 49.6192 109.555 49.9559 110.652 49.9559C111.75 49.9559 112.585 49.6192 113.159 48.9457C113.733 48.2472 114.02 47.3368 114.02 46.2143V27.4688H118.322ZM141.088 38.1324V41.7244H125.71V38.1324H141.088ZM155.642 27.4688C158.411 27.4688 160.83 28.0051 162.901 29.0777C164.996 30.1253 166.605 31.6469 167.727 33.6425C168.875 35.613 169.448 37.9204 169.448 40.5644C169.448 43.2085 168.875 45.5034 167.727 47.449C166.605 49.3947 164.996 50.8913 162.901 51.939C160.83 52.9617 158.411 53.473 155.642 53.473H147.148V27.4688H155.642ZM155.642 49.9933C158.685 49.9933 161.017 49.1702 162.639 47.5239C164.26 45.8775 165.071 43.5577 165.071 40.5644C165.071 37.5462 164.26 35.189 162.639 33.4928C161.017 31.7966 158.685 30.9485 155.642 30.9485H151.414V49.9933H155.642ZM177.941 35.85C178.565 34.8024 179.388 33.9917 180.411 33.418C181.458 32.8193 182.693 32.52 184.115 32.52V36.9351H183.03C181.359 36.9351 180.086 37.3591 179.213 38.2072C178.365 39.0553 177.941 40.527 177.941 42.6223V53.473H173.676V32.8567H177.941V35.85ZM190.206 30.1253C189.433 30.1253 188.784 29.8634 188.26 29.3396C187.736 28.8158 187.474 28.1672 187.474 27.394C187.474 26.6207 187.736 25.9722 188.26 25.4483C188.784 24.9245 189.433 24.6626 190.206 24.6626C190.954 24.6626 191.59 24.9245 192.114 25.4483C192.638 25.9722 192.9 26.6207 192.9 27.394C192.9 28.1672 192.638 28.8158 192.114 29.3396C191.59 29.8634 190.954 30.1253 190.206 30.1253ZM192.301 32.8567V53.473H188.036V32.8567H192.301ZM205.871 49.6566L211.708 32.8567H216.235L208.378 53.473H203.289L195.469 32.8567H200.034L205.871 49.6566ZM238.355 42.6598C238.355 43.433 238.305 44.1315 238.205 44.7551H222.453C222.577 46.4014 223.189 47.7234 224.286 48.7212C225.384 49.7189 226.731 50.2178 228.327 50.2178C230.622 50.2178 232.243 49.2575 233.191 47.3368H237.793C237.17 49.2325 236.035 50.7915 234.388 52.0138C232.767 53.2111 230.747 53.8098 228.327 53.8098C226.356 53.8098 224.585 53.3732 223.014 52.5002C221.467 51.6022 220.245 50.355 219.347 48.7586C218.474 47.1372 218.038 45.2664 218.038 43.1462C218.038 41.0259 218.462 39.1676 219.31 37.5712C220.183 35.9498 221.393 34.7026 222.939 33.8295C224.511 32.9565 226.307 32.52 228.327 32.52C230.273 32.52 232.006 32.944 233.528 33.7921C235.049 34.6402 236.234 35.8375 237.082 37.3841C237.931 38.9057 238.355 40.6642 238.355 42.6598ZM233.902 41.3128C233.877 39.7413 233.316 38.4816 232.218 37.5337C231.121 36.5859 229.761 36.1119 228.14 36.1119C226.668 36.1119 225.409 36.5859 224.361 37.5337C223.313 38.4567 222.69 39.7164 222.49 41.3128H233.902Z" fill="white"/>
<rect opacity="0.2" width="74.8323" height="74.8323" rx="37.4161" fill="white"/>
<rect x="32.7393" y="31.1801" width="49.8882" height="49.8882" rx="24.9441" fill="white"/>
</svg>
